<mxfile host="app.diagrams.net" modified="2023-05-12T23:53:20.012Z" agent="Mozilla/5.0 (Windows NT 10.0; Win64; x64) AppleWebKit/537.36 (KHTML, like Gecko) Chrome/112.0.0.0 Safari/537.36 OPR/98.0.0.0" etag="6fcikVgWkJ_OThxSbg64" version="21.3.0">
  <diagram name="Página-1" id="ziSPkBzleNqRN8rW8zG1">
    <mxGraphModel dx="2280" dy="2055" grid="1" gridSize="10" guides="1" tooltips="1" connect="1" arrows="1" fold="1" page="1" pageScale="1" pageWidth="827" pageHeight="1169" math="0" shadow="0">
      <root>
        <mxCell id="0" />
        <mxCell id="1" parent="0" />
        <mxCell id="uyZg83-tSDGuAF1aF24h-53" style="edgeStyle=none;rounded=0;orthogonalLoop=1;jettySize=auto;html=1;exitX=0;exitY=0.5;exitDx=0;exitDy=0;entryX=0.712;entryY=-0.007;entryDx=0;entryDy=0;dashed=1;entryPerimeter=0;" edge="1" parent="1" source="uyZg83-tSDGuAF1aF24h-2" target="uyZg83-tSDGuAF1aF24h-32">
          <mxGeometry relative="1" as="geometry" />
        </mxCell>
        <mxCell id="uyZg83-tSDGuAF1aF24h-92" value="" style="edgeStyle=none;rounded=0;orthogonalLoop=1;jettySize=auto;html=1;dashed=1;" edge="1" parent="1" source="uyZg83-tSDGuAF1aF24h-2" target="uyZg83-tSDGuAF1aF24h-91">
          <mxGeometry relative="1" as="geometry" />
        </mxCell>
        <mxCell id="uyZg83-tSDGuAF1aF24h-2" value="7. Registrar usuario" style="ellipse;whiteSpace=wrap;html=1;" vertex="1" parent="1">
          <mxGeometry x="414" y="70" width="140" height="70" as="geometry" />
        </mxCell>
        <mxCell id="uyZg83-tSDGuAF1aF24h-72" style="edgeStyle=none;rounded=0;orthogonalLoop=1;jettySize=auto;html=1;exitX=0.5;exitY=0.5;exitDx=0;exitDy=0;exitPerimeter=0;endArrow=block;endFill=0;endSize=16;" edge="1" parent="1" source="uyZg83-tSDGuAF1aF24h-3">
          <mxGeometry relative="1" as="geometry">
            <mxPoint x="30" y="370" as="targetPoint" />
          </mxGeometry>
        </mxCell>
        <mxCell id="uyZg83-tSDGuAF1aF24h-90" style="edgeStyle=none;rounded=0;orthogonalLoop=1;jettySize=auto;html=1;exitX=0.5;exitY=0.5;exitDx=0;exitDy=0;exitPerimeter=0;entryX=0;entryY=0.5;entryDx=0;entryDy=0;" edge="1" parent="1" source="uyZg83-tSDGuAF1aF24h-3" target="uyZg83-tSDGuAF1aF24h-32">
          <mxGeometry relative="1" as="geometry" />
        </mxCell>
        <mxCell id="uyZg83-tSDGuAF1aF24h-3" value="Administrador" style="shape=umlActor;verticalLabelPosition=bottom;verticalAlign=top;html=1;" vertex="1" parent="1">
          <mxGeometry x="114" y="210" width="30" height="60" as="geometry" />
        </mxCell>
        <mxCell id="uyZg83-tSDGuAF1aF24h-89" style="edgeStyle=none;rounded=0;orthogonalLoop=1;jettySize=auto;html=1;exitX=0.5;exitY=0.5;exitDx=0;exitDy=0;exitPerimeter=0;entryX=0;entryY=0;entryDx=0;entryDy=0;" edge="1" parent="1" source="uyZg83-tSDGuAF1aF24h-5" target="uyZg83-tSDGuAF1aF24h-56">
          <mxGeometry relative="1" as="geometry" />
        </mxCell>
        <mxCell id="uyZg83-tSDGuAF1aF24h-5" value="Eventual" style="shape=umlActor;verticalLabelPosition=bottom;verticalAlign=top;html=1;" vertex="1" parent="1">
          <mxGeometry x="114" y="380" width="30" height="60" as="geometry" />
        </mxCell>
        <mxCell id="uyZg83-tSDGuAF1aF24h-88" style="edgeStyle=none;rounded=0;orthogonalLoop=1;jettySize=auto;html=1;exitX=0.5;exitY=0.5;exitDx=0;exitDy=0;exitPerimeter=0;entryX=0;entryY=0.5;entryDx=0;entryDy=0;" edge="1" parent="1" source="uyZg83-tSDGuAF1aF24h-6" target="uyZg83-tSDGuAF1aF24h-56">
          <mxGeometry relative="1" as="geometry" />
        </mxCell>
        <mxCell id="uyZg83-tSDGuAF1aF24h-98" style="edgeStyle=none;rounded=0;orthogonalLoop=1;jettySize=auto;html=1;exitX=0.5;exitY=0.5;exitDx=0;exitDy=0;exitPerimeter=0;entryX=0;entryY=0.5;entryDx=0;entryDy=0;" edge="1" parent="1" source="uyZg83-tSDGuAF1aF24h-6" target="uyZg83-tSDGuAF1aF24h-97">
          <mxGeometry relative="1" as="geometry" />
        </mxCell>
        <mxCell id="uyZg83-tSDGuAF1aF24h-6" value="Empleado" style="shape=umlActor;verticalLabelPosition=bottom;verticalAlign=top;html=1;" vertex="1" parent="1">
          <mxGeometry x="114" y="615" width="30" height="60" as="geometry" />
        </mxCell>
        <mxCell id="uyZg83-tSDGuAF1aF24h-50" style="edgeStyle=none;rounded=0;orthogonalLoop=1;jettySize=auto;html=1;exitX=1;exitY=0.5;exitDx=0;exitDy=0;entryX=0;entryY=0.5;entryDx=0;entryDy=0;dashed=1;" edge="1" parent="1" source="uyZg83-tSDGuAF1aF24h-7" target="uyZg83-tSDGuAF1aF24h-46">
          <mxGeometry relative="1" as="geometry" />
        </mxCell>
        <mxCell id="uyZg83-tSDGuAF1aF24h-52" style="edgeStyle=none;rounded=0;orthogonalLoop=1;jettySize=auto;html=1;exitX=0;exitY=0.5;exitDx=0;exitDy=0;dashed=1;" edge="1" parent="1" source="uyZg83-tSDGuAF1aF24h-7" target="uyZg83-tSDGuAF1aF24h-32">
          <mxGeometry relative="1" as="geometry" />
        </mxCell>
        <mxCell id="uyZg83-tSDGuAF1aF24h-93" style="edgeStyle=none;rounded=0;orthogonalLoop=1;jettySize=auto;html=1;exitX=1;exitY=0.5;exitDx=0;exitDy=0;entryX=0;entryY=1;entryDx=0;entryDy=0;dashed=1;" edge="1" parent="1" source="uyZg83-tSDGuAF1aF24h-7" target="uyZg83-tSDGuAF1aF24h-91">
          <mxGeometry relative="1" as="geometry" />
        </mxCell>
        <mxCell id="uyZg83-tSDGuAF1aF24h-7" value="8. Modificar usuario" style="ellipse;whiteSpace=wrap;html=1;" vertex="1" parent="1">
          <mxGeometry x="414" y="160" width="140" height="70" as="geometry" />
        </mxCell>
        <mxCell id="uyZg83-tSDGuAF1aF24h-49" style="edgeStyle=none;rounded=0;orthogonalLoop=1;jettySize=auto;html=1;exitX=1;exitY=0.5;exitDx=0;exitDy=0;entryX=0;entryY=1;entryDx=0;entryDy=0;dashed=1;" edge="1" parent="1" source="uyZg83-tSDGuAF1aF24h-8" target="uyZg83-tSDGuAF1aF24h-46">
          <mxGeometry relative="1" as="geometry" />
        </mxCell>
        <mxCell id="uyZg83-tSDGuAF1aF24h-94" style="edgeStyle=none;rounded=0;orthogonalLoop=1;jettySize=auto;html=1;exitX=1;exitY=0.5;exitDx=0;exitDy=0;entryX=0.5;entryY=1;entryDx=0;entryDy=0;dashed=1;" edge="1" parent="1" source="uyZg83-tSDGuAF1aF24h-8" target="uyZg83-tSDGuAF1aF24h-91">
          <mxGeometry relative="1" as="geometry" />
        </mxCell>
        <mxCell id="uyZg83-tSDGuAF1aF24h-8" value="9. Eliminar usuario" style="ellipse;whiteSpace=wrap;html=1;" vertex="1" parent="1">
          <mxGeometry x="414" y="250" width="140" height="70" as="geometry" />
        </mxCell>
        <mxCell id="uyZg83-tSDGuAF1aF24h-41" style="edgeStyle=none;rounded=0;orthogonalLoop=1;jettySize=auto;html=1;exitX=0;exitY=0.5;exitDx=0;exitDy=0;entryX=1;entryY=0.5;entryDx=0;entryDy=0;dashed=1;" edge="1" parent="1" source="uyZg83-tSDGuAF1aF24h-9" target="uyZg83-tSDGuAF1aF24h-32">
          <mxGeometry relative="1" as="geometry" />
        </mxCell>
        <mxCell id="uyZg83-tSDGuAF1aF24h-9" value="10. Fichar fichada" style="ellipse;whiteSpace=wrap;html=1;" vertex="1" parent="1">
          <mxGeometry x="414" y="340" width="140" height="70" as="geometry" />
        </mxCell>
        <mxCell id="uyZg83-tSDGuAF1aF24h-42" style="edgeStyle=none;rounded=0;orthogonalLoop=1;jettySize=auto;html=1;exitX=0;exitY=0.5;exitDx=0;exitDy=0;entryX=1;entryY=1;entryDx=0;entryDy=0;dashed=1;" edge="1" parent="1" source="uyZg83-tSDGuAF1aF24h-10" target="uyZg83-tSDGuAF1aF24h-32">
          <mxGeometry relative="1" as="geometry" />
        </mxCell>
        <mxCell id="uyZg83-tSDGuAF1aF24h-10" value="11. Exportar fichada" style="ellipse;whiteSpace=wrap;html=1;" vertex="1" parent="1">
          <mxGeometry x="414" y="430" width="140" height="70" as="geometry" />
        </mxCell>
        <mxCell id="uyZg83-tSDGuAF1aF24h-40" style="edgeStyle=none;rounded=0;orthogonalLoop=1;jettySize=auto;html=1;exitX=0;exitY=0.5;exitDx=0;exitDy=0;entryX=1;entryY=0;entryDx=0;entryDy=0;dashed=1;" edge="1" parent="1" target="uyZg83-tSDGuAF1aF24h-32">
          <mxGeometry relative="1" as="geometry">
            <mxPoint x="414" y="285" as="sourcePoint" />
          </mxGeometry>
        </mxCell>
        <mxCell id="uyZg83-tSDGuAF1aF24h-45" style="edgeStyle=none;rounded=0;orthogonalLoop=1;jettySize=auto;html=1;exitX=0.5;exitY=1;exitDx=0;exitDy=0;entryX=0;entryY=0.5;entryDx=0;entryDy=0;dashed=1;" edge="1" parent="1" source="uyZg83-tSDGuAF1aF24h-32" target="uyZg83-tSDGuAF1aF24h-43">
          <mxGeometry relative="1" as="geometry" />
        </mxCell>
        <mxCell id="uyZg83-tSDGuAF1aF24h-32" value="1. Validar identidad&lt;br&gt;con huella" style="ellipse;whiteSpace=wrap;html=1;" vertex="1" parent="1">
          <mxGeometry x="230" y="205" width="140" height="70" as="geometry" />
        </mxCell>
        <mxCell id="uyZg83-tSDGuAF1aF24h-43" value="12. Registrar fecha de&lt;br&gt;última conexión" style="ellipse;whiteSpace=wrap;html=1;" vertex="1" parent="1">
          <mxGeometry x="414" y="520" width="140" height="70" as="geometry" />
        </mxCell>
        <mxCell id="uyZg83-tSDGuAF1aF24h-46" value="16. Buscar usuario por DNI" style="ellipse;whiteSpace=wrap;html=1;" vertex="1" parent="1">
          <mxGeometry x="650" y="250" width="140" height="70" as="geometry" />
        </mxCell>
        <mxCell id="uyZg83-tSDGuAF1aF24h-59" style="edgeStyle=none;rounded=0;orthogonalLoop=1;jettySize=auto;html=1;exitX=1;exitY=0.5;exitDx=0;exitDy=0;entryX=0;entryY=0.5;entryDx=0;entryDy=0;dashed=1;" edge="1" parent="1" source="uyZg83-tSDGuAF1aF24h-56" target="uyZg83-tSDGuAF1aF24h-58">
          <mxGeometry relative="1" as="geometry" />
        </mxCell>
        <mxCell id="uyZg83-tSDGuAF1aF24h-56" value="2. Registrar fichada" style="ellipse;whiteSpace=wrap;html=1;" vertex="1" parent="1">
          <mxGeometry x="220" y="610" width="140" height="70" as="geometry" />
        </mxCell>
        <mxCell id="uyZg83-tSDGuAF1aF24h-58" value="13. Relacionar con tarea" style="ellipse;whiteSpace=wrap;html=1;" vertex="1" parent="1">
          <mxGeometry x="414" y="610" width="140" height="70" as="geometry" />
        </mxCell>
        <mxCell id="uyZg83-tSDGuAF1aF24h-81" style="edgeStyle=none;rounded=0;orthogonalLoop=1;jettySize=auto;html=1;exitX=0;exitY=0.5;exitDx=0;exitDy=0;entryX=0.5;entryY=0;entryDx=0;entryDy=0;dashed=1;" edge="1" parent="1" source="uyZg83-tSDGuAF1aF24h-60" target="uyZg83-tSDGuAF1aF24h-32">
          <mxGeometry relative="1" as="geometry" />
        </mxCell>
        <mxCell id="uyZg83-tSDGuAF1aF24h-60" value="6. Cambiar actividad&lt;br&gt;del usuario" style="ellipse;whiteSpace=wrap;html=1;" vertex="1" parent="1">
          <mxGeometry x="414" y="-30" width="140" height="70" as="geometry" />
        </mxCell>
        <mxCell id="uyZg83-tSDGuAF1aF24h-62" value="Usuario" style="shape=umlActor;verticalLabelPosition=bottom;verticalAlign=top;html=1;" vertex="1" parent="1">
          <mxGeometry x="-10" y="380" width="30" height="60" as="geometry" />
        </mxCell>
        <mxCell id="uyZg83-tSDGuAF1aF24h-73" style="edgeStyle=none;rounded=0;orthogonalLoop=1;jettySize=auto;html=1;exitX=0.5;exitY=0.5;exitDx=0;exitDy=0;exitPerimeter=0;endArrow=block;endFill=0;endSize=16;" edge="1" parent="1" source="uyZg83-tSDGuAF1aF24h-5">
          <mxGeometry relative="1" as="geometry">
            <mxPoint x="40" y="410" as="targetPoint" />
            <mxPoint x="175" y="250" as="sourcePoint" />
          </mxGeometry>
        </mxCell>
        <mxCell id="uyZg83-tSDGuAF1aF24h-74" style="edgeStyle=none;rounded=0;orthogonalLoop=1;jettySize=auto;html=1;exitX=0.5;exitY=0.5;exitDx=0;exitDy=0;exitPerimeter=0;endArrow=block;endFill=0;endSize=16;" edge="1" parent="1" source="uyZg83-tSDGuAF1aF24h-6">
          <mxGeometry relative="1" as="geometry">
            <mxPoint x="30" y="460" as="targetPoint" />
            <mxPoint x="135" y="540" as="sourcePoint" />
          </mxGeometry>
        </mxCell>
        <mxCell id="uyZg83-tSDGuAF1aF24h-80" style="edgeStyle=none;rounded=0;orthogonalLoop=1;jettySize=auto;html=1;exitX=0;exitY=0.5;exitDx=0;exitDy=0;entryX=1;entryY=1;entryDx=0;entryDy=0;dashed=1;" edge="1" parent="1" source="uyZg83-tSDGuAF1aF24h-78" target="uyZg83-tSDGuAF1aF24h-56">
          <mxGeometry relative="1" as="geometry" />
        </mxCell>
        <mxCell id="uyZg83-tSDGuAF1aF24h-83" style="edgeStyle=none;rounded=0;orthogonalLoop=1;jettySize=auto;html=1;exitX=1;exitY=0.5;exitDx=0;exitDy=0;entryX=0;entryY=0.5;entryDx=0;entryDy=0;dashed=1;" edge="1" parent="1" source="uyZg83-tSDGuAF1aF24h-78" target="uyZg83-tSDGuAF1aF24h-82">
          <mxGeometry relative="1" as="geometry" />
        </mxCell>
        <mxCell id="uyZg83-tSDGuAF1aF24h-78" value="14. Registrar fichada" style="ellipse;whiteSpace=wrap;html=1;" vertex="1" parent="1">
          <mxGeometry x="414" y="700" width="140" height="70" as="geometry" />
        </mxCell>
        <mxCell id="uyZg83-tSDGuAF1aF24h-82" value="17. Definir sector" style="ellipse;whiteSpace=wrap;html=1;" vertex="1" parent="1">
          <mxGeometry x="600" y="700" width="140" height="70" as="geometry" />
        </mxCell>
        <mxCell id="uyZg83-tSDGuAF1aF24h-91" value="15. Registrar operación" style="ellipse;whiteSpace=wrap;html=1;" vertex="1" parent="1">
          <mxGeometry x="650" y="70" width="140" height="70" as="geometry" />
        </mxCell>
        <mxCell id="uyZg83-tSDGuAF1aF24h-96" style="edgeStyle=none;rounded=0;orthogonalLoop=1;jettySize=auto;html=1;exitX=0;exitY=0.5;exitDx=0;exitDy=0;entryX=0.345;entryY=0.008;entryDx=0;entryDy=0;entryPerimeter=0;dashed=1;" edge="1" parent="1" source="uyZg83-tSDGuAF1aF24h-95" target="uyZg83-tSDGuAF1aF24h-32">
          <mxGeometry relative="1" as="geometry" />
        </mxCell>
        <mxCell id="uyZg83-tSDGuAF1aF24h-95" value="5. Exportar seguimiento&lt;br&gt;de operaciones" style="ellipse;whiteSpace=wrap;html=1;" vertex="1" parent="1">
          <mxGeometry x="414" y="-120" width="140" height="70" as="geometry" />
        </mxCell>
        <mxCell id="uyZg83-tSDGuAF1aF24h-97" value="3. Registrar reloj&lt;br&gt;biométrico" style="ellipse;whiteSpace=wrap;html=1;" vertex="1" parent="1">
          <mxGeometry x="220" y="720" width="140" height="70" as="geometry" />
        </mxCell>
        <mxCell id="uyZg83-tSDGuAF1aF24h-103" style="edgeStyle=none;rounded=0;orthogonalLoop=1;jettySize=auto;html=1;exitX=0.5;exitY=0.5;exitDx=0;exitDy=0;exitPerimeter=0;entryX=0;entryY=0.5;entryDx=0;entryDy=0;" edge="1" parent="1" source="uyZg83-tSDGuAF1aF24h-99" target="uyZg83-tSDGuAF1aF24h-100">
          <mxGeometry relative="1" as="geometry" />
        </mxCell>
        <mxCell id="uyZg83-tSDGuAF1aF24h-99" value="Técnico" style="shape=umlActor;verticalLabelPosition=bottom;verticalAlign=top;html=1;" vertex="1" parent="1">
          <mxGeometry x="114" y="825" width="30" height="60" as="geometry" />
        </mxCell>
        <mxCell id="uyZg83-tSDGuAF1aF24h-100" value="4. Revisar reloj" style="ellipse;whiteSpace=wrap;html=1;" vertex="1" parent="1">
          <mxGeometry x="220" y="820" width="140" height="70" as="geometry" />
        </mxCell>
        <mxCell id="uyZg83-tSDGuAF1aF24h-101" value="Configurar reloj" style="ellipse;whiteSpace=wrap;html=1;" vertex="1" parent="1">
          <mxGeometry x="590" y="820" width="140" height="70" as="geometry" />
        </mxCell>
        <mxCell id="uyZg83-tSDGuAF1aF24h-105" value="Sistema de registro biométrico" style="shape=umlFrame;whiteSpace=wrap;html=1;pointerEvents=0;width=180;height=30;" vertex="1" parent="1">
          <mxGeometry x="190" y="-156" width="610" height="1080" as="geometry" />
        </mxCell>
        <mxCell id="uyZg83-tSDGuAF1aF24h-109" style="edgeStyle=none;rounded=0;orthogonalLoop=1;jettySize=auto;html=1;exitX=0;exitY=0.5;exitDx=0;exitDy=0;entryX=1;entryY=0.5;entryDx=0;entryDy=0;dashed=1;" edge="1" parent="1" source="uyZg83-tSDGuAF1aF24h-107" target="uyZg83-tSDGuAF1aF24h-100">
          <mxGeometry relative="1" as="geometry" />
        </mxCell>
        <mxCell id="uyZg83-tSDGuAF1aF24h-110" style="edgeStyle=none;rounded=0;orthogonalLoop=1;jettySize=auto;html=1;exitX=1;exitY=0.5;exitDx=0;exitDy=0;entryX=0;entryY=0.5;entryDx=0;entryDy=0;dashed=1;" edge="1" parent="1" source="uyZg83-tSDGuAF1aF24h-107" target="uyZg83-tSDGuAF1aF24h-101">
          <mxGeometry relative="1" as="geometry" />
        </mxCell>
        <mxCell id="uyZg83-tSDGuAF1aF24h-107" value="Conseguir repuesto" style="ellipse;whiteSpace=wrap;html=1;" vertex="1" parent="1">
          <mxGeometry x="414" y="820" width="140" height="70" as="geometry" />
        </mxCell>
      </root>
    </mxGraphModel>
  </diagram>
</mxfile>
